<svg xmlns="http://www.w3.org/2000/svg" viewBox="0 0 597.39 209.57"><g id="Layer_2" data-name="Layer 2"><g id="Layer_1-2" data-name="Layer 1"><path d="M50.65,49.67V41H87.88a7.52,7.52,0,0,0,5.37-1.78,6.16,6.16,0,0,0,1.87-4.71,6,6,0,0,0-1.87-4.81,8,8,0,0,0-5.37-1.61H65.12A17.94,17.94,0,0,1,58.8,27,13.37,13.37,0,0,1,54,24.08a13,13,0,0,1-3-4.47A14.87,14.87,0,0,1,50,13.94a15.37,15.37,0,0,1,1-5.57A11.92,11.92,0,0,1,53.9,4a13.84,13.84,0,0,1,4.82-2.91A19.18,19.18,0,0,1,65.27,0h35.66V8.68H65.2a6.33,6.33,0,0,0-4.64,1.61,6,6,0,0,0-1.64,4.47,5.82,5.82,0,0,0,1.67,4.44,6.32,6.32,0,0,0,4.53,1.57H87.86q7.59,0,11.51,3.55t3.93,10.8a16.85,16.85,0,0,1-1,5.8,12.46,12.46,0,0,1-2.86,4.62,13.15,13.15,0,0,1-4.82,3,19.21,19.21,0,0,1-6.8,1.1Z" style="fill:#f7941d"/><path d="M107.42,0H118l22.54,38.26L163,0h10L144.38,47.55a6.68,6.68,0,0,1-1.78,2,3.86,3.86,0,0,1-2.39.75,4,4,0,0,1-2.46-.75,6.65,6.65,0,0,1-1.77-2Z" style="fill:#f7941d"/><path d="M178.33,49.67V0H187V41h33.41v8.68Z" style="fill:#f7941d"/><rect y="0.06" width="4.9" height="206.02" style="fill:#bcbcbc"/><path d="M88.41,106c-28.57,28.18-9.33,78.71,35,78.71,17.5,0,30.71-7.38,35.57-23.12H123c-13.6,0-20.6-12.25-19.63-24.1h84.37c4.28,47-32.65,72.49-67.63,72.1-23.91-.39-48.2-12-61.42-35.37-15.35-27-11.66-58.5,5.64-80.27,12.44-15.74,32.26-26.43,57.33-26.43,37.12,0,71.91,22.93,48.4,51.31C162.46,94.7,113.87,80.9,88.41,106Z" style="fill:#0674ed"/><path d="M221.34,206.26H196.85V90c0-12.43,9.52-20,24.49-19.82Z" style="fill:#0674ed"/><path d="M351.55,206.26v-116c0-10.5,9.33-19.63,24.49-20v78.32c0,17.69,5.83,37.71,26,37.71,35.76,0,35-57.92-.19-57.92-7,0-16.13,1.75-20.41,8-4.47-8.16-1.94-29.74,23.71-30.71,24.88-.77,48,21,48,51.5,0,47.43-48.4,66.86-77.16,38.49v10.68H351.55Z" style="fill:#0674ed"/><path d="M537,195.18c-29.35,29.15-78.91,9.33-78.91-39.45,0-31.3,23.71-53.65,49.17-52.67,24.88,1,29,23.12,24.29,31.48-4.27-6.41-13.6-8.16-21-8.16-35.95,0-36.73,59.27,0,59.27,20.61,0,26.44-20.6,26.44-38.67V105.61h25.27V206.26H537Z" style="fill:#0674ed"/><path d="M597.39,206.26H572.91V90c0-12.43,9.52-20,24.48-19.82Z" style="fill:#0674ed"/><path d="M286.77,94.71c17.31,0,32.54,7.72,43.6,21.07-12.1-7.3-29.42-4.8-37.55,5-19.41-4-35.89,9-35.89,30.46,0,41.72,58.83,42.14,59,.41-.21-16.27-17.1-21.69-25.66-15.64,2.51-23.58,43-25.46,50.49-1a57.13,57.13,0,0,1-14.4,56.54c-26.49,26.5-71.14,20-89.29-11.89C215.2,141.44,243,94.71,286.77,94.71Z" style="fill:#f7941d"/></g></g></svg>