<svg xmlns="http://www.w3.org/2000/svg" xmlns:xlink="http://www.w3.org/1999/xlink" viewBox="0 0 262.86 263"><defs><radialGradient id="radial-gradient" cx="175.08" cy="1043.74" r="64.92" gradientTransform="translate(0 -980.06)" gradientUnits="userSpaceOnUse"><stop offset="0" stop-color="#ffc93e"/><stop offset="0.11" stop-color="#fec13d"/><stop offset="0.28" stop-color="#faac3a"/><stop offset="0.49" stop-color="#f58a35"/><stop offset="0.73" stop-color="#ed5a2e"/><stop offset="0.98" stop-color="#e31f26"/></radialGradient></defs><g id="Layer_2" data-name="Layer 2"><g id="Layer_1-2" data-name="Layer 1"><path d="M167.35,5,74.85,43,17.05,66.68a132.22,132.22,0,0,0-6.2,12.37A126.12,126.12,0,0,0,5.49,93.76L65.78,69A137.26,137.26,0,0,1,70,54.81L180.44,9.47A126.15,126.15,0,0,0,167.35,5Z" style="fill:#0674ed"/><path d="M131.44,0a132.29,132.29,0,0,0-27.28,2.84q-4,.84-7.86,2A129.67,129.67,0,0,0,67.44,16.62,131.11,131.11,0,0,0,21.77,59L78.56,35.66a133.34,133.34,0,0,1,12.76-19L131.89,0Z" style="fill:#0674ed"/><path d="M262.86,134.36,107.45,198.13,40,225.85c2.43,2.35,4.91,4.62,7.49,6.76a132.6,132.6,0,0,0,10.77,8.08l69-28.31a132.72,132.72,0,0,1-11.65-7.72l146.76-60.23C262.6,141.11,262.79,137.74,262.86,134.36Z" style="fill:#0674ed"/><path d="M258.85,164.1,133.17,215.69,63.73,244.18c3.33,2,6.78,3.9,10.29,5.61A127,127,0,0,0,89.28,256l72.06-29.57a130.39,130.39,0,0,1-16.9-5.54l111-45.55C256.71,171.66,257.87,167.93,258.85,164.1Z" style="fill:#0674ed"/><path d="M245,197.92l-74.31,30.51L97.36,258.49A134.72,134.72,0,0,0,131.44,263a131,131,0,0,0,89.62-35.32,131.61,131.61,0,0,1-27.28,2.84c-1.35,0-2.7-.05-4.07-.09l46-18.88A132.07,132.07,0,0,0,245,197.92Z" style="fill:#0674ed"/><path d="M180.44,34.51a54.57,54.57,0,0,1,6.39.43l22.63-9.29q-4.41-3.24-9.06-6.13L64.47,75.29,3.72,100.24c-.85,3.54-1.6,7.1-2.17,10.73C1,115.26.43,119.6.18,124L62.32,98.52c0-4.3.24-8.56.63-12.75l77.23-31.68A51.11,51.11,0,0,1,180.44,34.51Z" style="fill:#0674ed"/><path d="M130.06,76.49,62.45,104.25,0,129.87v1.6c0,2.75.12,5.45.28,8.14.25,4,.65,8,1.27,12L65,125.53c-.8-3.85-1.38-7.78-1.83-11.75l66.06-27.12v-.89A50.73,50.73,0,0,1,130.06,76.49Z" style="fill:#0674ed"/><path d="M217.5,50.43l13-5.34q-3.19-3.66-6.65-7.12l-14.1,5.81A51.16,51.16,0,0,1,217.5,50.43Z" style="fill:#0674ed"/><path d="M66.2,130.79,2.44,157q.91,4.5,2.11,9,1.5,5.64,3.51,11.07l64.69-26.64a115.3,115.3,0,0,1-4-10.84l67.66-27.76a48.21,48.21,0,0,1-3.94-8.23Z" style="fill:#0674ed"/><path d="M246,66.86c-1.51-2.68-3.1-5.31-4.8-7.87l-14,5.75a51.65,51.65,0,0,1,3,8.61Z" style="fill:#0674ed"/><path d="M256.43,90.65c-1-2.9-2-5.76-3.14-8.56l-21.88,9a49.86,49.86,0,0,1-2.35,10.79Z" style="fill:#0674ed"/><path d="M75,155.29,10,181.94c1.18,2.82,2.45,5.56,3.83,8.28,1.72,3.48,3.6,6.88,5.64,10.17l65.89-27c-2.23-3.21-4.28-6.54-6.2-9.95l78-32a52.88,52.88,0,0,1-9.25-6Z" style="fill:#0674ed"/><path d="M262,116.43c-.35-3.13-.81-6.21-1.38-9.26l-51.88,21.29a50.92,50.92,0,0,1-18.52,7.61L88.53,177.81,22.39,205c1.76,2.59,3.63,5.11,5.56,7.54,2.5,3.21,5.15,6.28,7.94,9.25L103.1,194.2a123.6,123.6,0,0,1-8.58-9Z" style="fill:#0674ed"/><path d="M217,106.86l12.14-5a50.47,50.47,0,0,0,2.36-10.79l-10.94,4.49A41.54,41.54,0,0,1,217,106.86Z" style="fill:#fff"/><path d="M180.44,44.13a41.63,41.63,0,0,0-40,30.23l61.39-24.28A41.34,41.34,0,0,0,180.44,44.13Zm27.21,10.19L139,81.48a38.51,38.51,0,0,0-.21,4.29,41,41,0,0,0,2.74,14.74L219,69.88A41.57,41.57,0,0,0,207.65,54.32ZM220.78,75.7l-76.7,30.35a41.87,41.87,0,0,0,15.52,15.74l60.7-24a41,41,0,0,0,.48-22.06Zm-40.34,51.69a41.67,41.67,0,0,0,36.61-21.78l-49.71,19.66A42,42,0,0,0,180.44,127.39Z" style="fill:url(#radial-gradient)"/></g></g></svg>